<svg width="17" height="17" viewBox="0 0 17 17" fill="none" xmlns="http://www.w3.org/2000/svg">
<path d="M13.1042 8.5C13.1042 8.6956 12.9456 8.85417 12.75 8.85417C12.5544 8.85417 12.3958 8.6956 12.3958 8.5C12.3958 8.3044 12.5544 8.14584 12.75 8.14584V8.14584C12.9456 8.14584 13.1042 8.3044 13.1042 8.5" stroke="#DCD9D9" stroke-width="1.5" stroke-linecap="round" stroke-linejoin="round"/>
<path d="M8.85418 8.5C8.85418 8.6956 8.69561 8.85417 8.50001 8.85417C8.30441 8.85417 8.14584 8.6956 8.14584 8.5C8.14584 8.3044 8.30441 8.14584 8.50001 8.14584V8.14584C8.69561 8.14584 8.85418 8.3044 8.85418 8.5" stroke="#DCD9D9" stroke-width="1.5" stroke-linecap="round" stroke-linejoin="round"/>
<path d="M4.60418 8.5C4.60418 8.6956 4.44561 8.85417 4.25001 8.85417C4.05441 8.85417 3.89584 8.6956 3.89584 8.5C3.89584 8.3044 4.05441 8.14584 4.25001 8.14584V8.14584C4.44561 8.14584 4.60418 8.3044 4.60418 8.5" stroke="#DCD9D9" stroke-width="1.5" stroke-linecap="round" stroke-linejoin="round"/>
</svg>
