<svg width="11" height="3" viewBox="0 0 11 3" fill="none" xmlns="http://www.w3.org/2000/svg">
<path d="M10.1042 1.5C10.1042 1.6956 9.94561 1.85417 9.75001 1.85417C9.55441 1.85417 9.39584 1.6956 9.39584 1.5C9.39584 1.3044 9.55441 1.14583 9.75001 1.14583V1.14583C9.94561 1.14583 10.1042 1.3044 10.1042 1.5" stroke="#DCD9D9" stroke-width="1.5" stroke-linecap="round" stroke-linejoin="round"/>
<path d="M5.85418 1.5C5.85418 1.6956 5.69561 1.85417 5.50001 1.85417C5.30441 1.85417 5.14584 1.6956 5.14584 1.5C5.14584 1.3044 5.30441 1.14583 5.50001 1.14583V1.14583C5.69561 1.14583 5.85418 1.3044 5.85418 1.5" stroke="#DCD9D9" stroke-width="1.5" stroke-linecap="round" stroke-linejoin="round"/>
<path d="M1.60418 1.5C1.60418 1.6956 1.44561 1.85417 1.25001 1.85417C1.05441 1.85417 0.895844 1.6956 0.895844 1.5C0.895844 1.3044 1.05441 1.14583 1.25001 1.14583V1.14583C1.44561 1.14583 1.60418 1.3044 1.60418 1.5" stroke="#DCD9D9" stroke-width="1.5" stroke-linecap="round" stroke-linejoin="round"/>
</svg>
