<svg width="22" height="22" viewBox="0 0 22 22" fill="none" xmlns="http://www.w3.org/2000/svg">
<circle cx="11" cy="11" r="11" fill="#6FCF97"/>
<path d="M8.01465 10.48H9.68457V11.4556H8.01465V13.3584H6.97754V11.4556H5.29883V10.48H6.97754V8.7002H8.01465V10.48ZM14.5273 9.28906C14.5273 9.60254 14.4468 9.88232 14.2856 10.1284C14.1245 10.3716 13.9048 10.5635 13.6265 10.7041C13.9604 10.8594 14.2168 11.0718 14.3955 11.3413C14.5771 11.6108 14.668 11.9155 14.668 12.2554C14.668 12.8179 14.4775 13.2646 14.0967 13.5957C13.7158 13.9238 13.209 14.0879 12.5762 14.0879C11.9404 14.0879 11.4307 13.9224 11.0469 13.5913C10.666 13.2603 10.4756 12.8149 10.4756 12.2554C10.4756 11.9126 10.5664 11.605 10.748 11.3325C10.9297 11.0601 11.1846 10.8506 11.5127 10.7041C11.2373 10.5635 11.019 10.3716 10.8579 10.1284C10.6997 9.88232 10.6206 9.60254 10.6206 9.28906C10.6206 8.74414 10.7964 8.31201 11.1479 7.99268C11.4995 7.67334 11.9741 7.51367 12.5718 7.51367C13.1724 7.51367 13.6484 7.67334 14 7.99268C14.3516 8.31201 14.5273 8.74414 14.5273 9.28906ZM13.6001 12.2026C13.6001 11.8862 13.5049 11.6313 13.3145 11.438C13.127 11.2417 12.8779 11.1436 12.5674 11.1436C12.2568 11.1436 12.0078 11.2402 11.8203 11.4336C11.6357 11.627 11.5435 11.8833 11.5435 12.2026C11.5435 12.5161 11.6343 12.7666 11.8159 12.9541C12.0005 13.1416 12.2539 13.2354 12.5762 13.2354C12.8984 13.2354 13.1489 13.1445 13.3276 12.9629C13.5093 12.7812 13.6001 12.5278 13.6001 12.2026ZM13.4639 9.32861C13.4639 9.05029 13.3833 8.82178 13.2222 8.64307C13.061 8.46143 12.8442 8.37061 12.5718 8.37061C12.2993 8.37061 12.084 8.45703 11.9258 8.62988C11.7676 8.7998 11.6885 9.03271 11.6885 9.32861C11.6885 9.62158 11.7676 9.85449 11.9258 10.0273C12.0869 10.2002 12.3037 10.2866 12.5762 10.2866C12.8486 10.2866 13.064 10.2002 13.2222 10.0273C13.3833 9.85449 13.4639 9.62158 13.4639 9.32861Z" fill="#F2F2F2"/>
</svg>
