<svg width="32" height="38" viewBox="0 0 32 38" fill="none" xmlns="http://www.w3.org/2000/svg">
<g filter="url(#filter0_d_1_112)">
<path d="M29.7403 35.363H4.34671V2.33203H21.8048L29.7403 10.1966V35.363Z" fill="white"/>
</g>
<path d="M28.6584 11.0453H21.1197V3.57395L28.6584 11.0453Z" fill="#D8D8D8"/>
<rect y="7.29971" width="17.0803" height="8.69541" rx="4" fill="#585858"/>
<path fill-rule="evenodd" clip-rule="evenodd" d="M5.50147 12.8907H7.39358V13.512H4.53479V13.0583L6.39081 10.3851H4.53737V9.75871H7.35234V10.2021L5.50147 12.8907ZM8.56513 13.5126H7.79178V9.75932H8.56513V13.5126ZM9.92414 12.1902V13.5126H9.1508V9.75932H10.615C10.8968 9.75932 11.1447 9.81087 11.3587 9.91399C11.5727 10.0171 11.7372 10.1636 11.8523 10.3535C11.9675 10.5434 12.0251 10.7595 12.0251 11.0018C12.0251 11.3696 11.8992 11.6596 11.6474 11.8718C11.3956 12.0841 11.0472 12.1902 10.6021 12.1902H9.92414ZM9.92434 11.5654H10.6152C10.8197 11.5654 10.9757 11.5173 11.0831 11.4211C11.1905 11.3248 11.2442 11.1874 11.2442 11.0086C11.2442 10.8247 11.19 10.6761 11.0818 10.5627C10.9735 10.4492 10.824 10.3908 10.6332 10.3874H9.92434V11.5654Z" fill="white"/>
<path d="M16.1485 24.3814H18.3224V25.3131H16.1485V24.3814Z" fill="#585858"/>
<path d="M16.1485 20.6556H18.3224V21.5873H16.1485V20.6556Z" fill="#585858"/>
<path d="M16.1485 17.5473H18.3224V18.479H16.1485V17.5473Z" fill="#585858"/>
<path fill-rule="evenodd" clip-rule="evenodd" d="M15.9906 27.1789H18.1645C18.1645 27.991 18.4939 28.8031 18.79 29.5331C19.0318 30.1292 19.2514 30.6705 19.2514 31.1126C19.2514 32.1997 18.2791 33.0794 17.0775 33.0794C15.876 33.0794 14.9037 32.1997 14.9037 31.1126C14.9037 30.6705 15.1233 30.1292 15.3651 29.5331C15.6612 28.8031 15.9906 27.991 15.9906 27.1789ZM15.9895 31.1146C15.9895 31.6581 16.4756 32.098 17.0764 32.098C17.6772 32.098 18.1633 31.6581 18.1633 31.1146C18.1633 30.571 17.6772 30.1311 17.0764 30.1311C16.4756 30.1311 15.9895 30.571 15.9895 31.1146Z" fill="#585858"/>
<defs>
<filter id="filter0_d_1_112" x="2.34671" y="0.332031" width="29.3936" height="37.031" filterUnits="userSpaceOnUse" color-interpolation-filters="sRGB">
<feFlood flood-opacity="0" result="BackgroundImageFix"/>
<feColorMatrix in="SourceAlpha" type="matrix" values="0 0 0 0 0 0 0 0 0 0 0 0 0 0 0 0 0 0 127 0" result="hardAlpha"/>
<feOffset/>
<feGaussianBlur stdDeviation="1"/>
<feColorMatrix type="matrix" values="0 0 0 0 0 0 0 0 0 0 0 0 0 0 0 0 0 0 0.5 0"/>
<feBlend mode="normal" in2="BackgroundImageFix" result="effect1_dropShadow_1_112"/>
<feBlend mode="normal" in="SourceGraphic" in2="effect1_dropShadow_1_112" result="shape"/>
</filter>
</defs>
</svg>
